<?xml version="1.0" standalone="no"?>
<!DOCTYPE svg PUBLIC "-//W3C//DTD SVG 20010904//EN"
 "http://www.w3.org/TR/2001/REC-SVG-20010904/DTD/svg10.dtd">
<svg version="1.0" xmlns="http://www.w3.org/2000/svg"
 width="1279.000000pt" height="1280.000000pt" viewBox="0 0 1279.000000 1280.000000"
 preserveAspectRatio="xMidYMid meet">
<metadata>
Created by potrace 1.15, written by Peter Selinger 2001-2017
</metadata>
<g transform="translate(0.000000,1280.000000) scale(0.100000,-0.100000)"
fill="#000000" stroke="none">
<path d="M6110 12794 c-298 -20 -504 -41 -707 -74 -1554 -254 -2961 -1056
-3935 -2241 -743 -904 -1236 -2025 -1402 -3181 -49 -335 -60 -507 -60 -898 0
-391 11 -563 60 -898 166 -1156 659 -2277 1402 -3181 974 -1185 2381 -1987
3935 -2241 341 -55 597 -75 992 -75 395 0 651 20 992 75 1554 254 2961 1056
3935 2241 743 904 1236 2025 1402 3181 49 335 60 507 60 898 0 391 -11 563
-60 898 -143 1002 -540 1994 -1126 2819 -48 68 -88 126 -88 128 0 2 113 196
251 432 327 556 343 597 343 853 0 168 -19 259 -84 395 -118 248 -369 443
-645 500 -103 21 -270 21 -366 -1 -214 -47 -421 -180 -547 -350 -26 -35 -108
-159 -182 -277 l-134 -214 -121 82 c-917 628 -1965 1005 -3085 1110 -154 15
-705 27 -830 19z m671 -994 c923 -71 1852 -391 2614 -899 196 -131 215 -145
212 -157 -4 -20 -3472 -5464 -3478 -5462 -8 3 -2176 2125 -2354 2304 -136 136
-201 182 -330 235 -129 53 -226 72 -380 73 -428 2 -752 -247 -860 -660 -71
-274 -15 -588 143 -796 41 -55 1784 -2192 2871 -3522 406 -496 439 -530 590
-602 158 -76 278 -99 475 -91 158 6 262 30 395 93 133 62 277 184 344 290 22
35 1375 2339 3477 5922 363 619 456 770 466 760 27 -29 181 -305 269 -483 289
-586 462 -1179 542 -1860 25 -216 25 -874 0 -1090 -132 -1120 -545 -2096
-1247 -2945 -132 -161 -489 -518 -650 -650 -888 -734 -1967 -1173 -3099 -1260
-174 -13 -598 -13 -772 0 -1027 79 -2033 456 -2863 1074 -204 152 -359 287
-572 500 -434 434 -747 871 -1019 1421 -289 586 -462 1179 -542 1860 -25 216
-25 874 0 1090 80 681 253 1274 542 1860 272 550 585 987 1019 1421 281 281
499 460 817 672 760 506 1690 829 2594 901 159 12 638 13 796 1z"/>
</g>
</svg>
